<?xml version="1.0" encoding="utf-8"?>
<!-- Generator: Adobe Illustrator 16.0.0, SVG Export Plug-In . SVG Version: 6.00 Build 0)  -->
<!DOCTYPE svg PUBLIC "-//W3C//DTD SVG 1.1//EN" "http://www.w3.org/Graphics/SVG/1.1/DTD/svg11.dtd">
<svg version="1.1" id="Layer_1" xmlns="http://www.w3.org/2000/svg" xmlns:xlink="http://www.w3.org/1999/xlink" x="0px" y="0px"
	 width="16.41px" height="10px" viewBox="0 0 16.41 10" enable-background="new 0 0 16.41 10" xml:space="preserve">
<g>
	<path fill="#424243" d="M15.096,7.372V10h1.314V6.058H1.314V0.673c0-0.171-0.064-0.326-0.192-0.464C0.994,0.069,0.839,0,0.657,0
		C0.476,0,0.32,0.069,0.192,0.208C0.064,0.347,0,0.502,0,0.673V10h1.314V7.372H15.096z M15.096,7.372"/>
	<path fill="#424243" d="M3.381,3.365c0.331,0,0.62-0.117,0.865-0.353c0.246-0.235,0.369-0.518,0.369-0.849
		c0-0.332-0.123-0.615-0.369-0.85S3.712,0.961,3.381,0.961s-0.614,0.118-0.85,0.353c-0.235,0.235-0.353,0.518-0.353,0.85
		c0,0.331,0.118,0.614,0.353,0.849C2.767,3.248,3.05,3.365,3.381,3.365L3.381,3.365z M3.381,3.365"/>
	<path fill="#424243" d="M16.41,5.064V3.461c0-0.256-0.091-0.464-0.272-0.625c-0.182-0.16-0.411-0.262-0.689-0.304l-9.519-0.93
		H5.865c-0.171,0-0.315,0.059-0.433,0.176S5.256,2.041,5.256,2.211V4.07H2.82c-0.406,0-0.609,0.166-0.609,0.497
		S2.415,5.064,2.82,5.064H16.41z M16.41,5.064"/>
</g>
</svg>
