<?xml version="1.0" encoding="utf-8"?>
<!-- Generator: Adobe Illustrator 16.0.0, SVG Export Plug-In . SVG Version: 6.00 Build 0)  -->
<!DOCTYPE svg PUBLIC "-//W3C//DTD SVG 1.1//EN" "http://www.w3.org/Graphics/SVG/1.1/DTD/svg11.dtd">
<svg version="1.1" id="Layer_1" xmlns="http://www.w3.org/2000/svg" xmlns:xlink="http://www.w3.org/1999/xlink" x="0px" y="0px"
	 width="20px" height="20px" viewBox="0 0 20 20" enable-background="new 0 0 20 20" xml:space="preserve">
<g>
	<g>
		<path fill="#FFFFFF" d="M19.501,3.149l-2.67-2.658C16.5,0.162,16.088,0,15.649,0c-0.438,0-0.881,0.165-1.182,0.492L12.68,2.272
			c-0.356-0.109-0.77-0.028-1.045,0.218l-0.769,0.766c-0.304,0.302-0.356,0.766-0.194,1.151l-8.64,8.602
			c-0.028,0.027-0.056,0.056-0.056,0.081v0.028C1.948,13.146,1.948,13.175,1.92,13.2l-1.539,4.658l-0.166,0.492l-0.166,0.492
			c0,0.027,0,0.056-0.028,0.056c-0.056,0.273,0,0.491,0.082,0.629c0.028,0.056,0.056,0.108,0.082,0.137
			c0.166,0.192,0.413,0.302,0.688,0.302h0.191c0.028,0,0.056,0,0.056-0.028l0.688-0.218l4.952-1.615
			c0.082-0.028,0.138-0.056,0.194-0.109l8.666-8.627c0.109,0.056,0.219,0.056,0.356,0.056c0.275,0,0.522-0.109,0.716-0.302
			l0.77-0.766c0.303-0.302,0.356-0.712,0.219-1.067l1.788-1.78C20.16,4.877,20.16,3.807,19.501,3.149L19.501,3.149z M6.653,16.899
			l-1.401-1.396l8.225-8.217l1.403,1.397L6.653,16.899z M12.761,6.573L4.536,14.79l-1.403-1.423l8.225-8.188L12.761,6.573z
			 M2.142,18.543l-0.688-0.685l1.182-3.561l3.082,3.068L2.142,18.543z M16.172,8.272c-0.028-0.028-0.028-0.056-0.057-0.056
			l-4.264-4.273c-0.056-0.056-0.081-0.081-0.138-0.109l0.606-0.629l0.057,0.056l4.319,4.301c0.028,0.028,0.056,0.056,0.082,0.056
			L16.172,8.272z M18.785,4.821l-1.732,1.725l-3.604-3.614l1.731-1.725c0.247-0.246,0.688-0.246,0.936,0l2.669,2.655
			C19.032,4.136,19.032,4.547,18.785,4.821L18.785,4.821z M18.785,4.821"/>
	</g>
</g>
</svg>
