<?xml version="1.0" encoding="utf-8"?>
<!-- Generator: Adobe Illustrator 16.0.0, SVG Export Plug-In . SVG Version: 6.00 Build 0)  -->
<!DOCTYPE svg PUBLIC "-//W3C//DTD SVG 1.1//EN" "http://www.w3.org/Graphics/SVG/1.1/DTD/svg11.dtd">
<svg version="1.1" id="Layer_1" xmlns="http://www.w3.org/2000/svg" xmlns:xlink="http://www.w3.org/1999/xlink" x="0px" y="0px"
	 width="14.534px" height="14.979px" viewBox="0 0 14.534 14.979" enable-background="new 0 0 14.534 14.979" xml:space="preserve">
<g>
	<g>
		<path fill="#666766" d="M10.095,9.778c0.957-1.037,1.555-2.425,1.555-3.954C11.649,2.618,9.04,0,5.825,0S0,2.618,0,5.825
			s2.609,5.825,5.825,5.825c1.309,0,2.513-0.431,3.488-1.159l4.331,4.331c0.105,0.105,0.237,0.158,0.369,0.158
			s0.272-0.053,0.369-0.158c0.202-0.202,0.202-0.536,0-0.747L10.095,9.778z M1.054,5.825c0-2.627,2.135-4.771,4.771-4.771
			c2.627,0,4.771,2.135,4.771,4.771c0,2.636-2.135,4.771-4.771,4.771C3.189,10.596,1.054,8.452,1.054,5.825L1.054,5.825z
			 M1.054,5.825"/>
	</g>
</g>
</svg>
